<svg xmlns="http://www.w3.org/2000/svg" viewBox="0 0 64 64">
  
  <rect width="64" height="64" rx="10" fill="#0F0F0F"></rect>
  <rect x="3" y="3" width="58" height="58" rx="8" fill="none" stroke="#C81E1E" stroke-width="2.5"></rect>
  
  
  <path fill="#A0A0A0" d="M 13 50 L 13 28 L 17 28 L 17 24 L 21 24 L 21 28 L 25 28 L 25 24 L 29 24 L 29 28 L 31.5 28 L 31.5 50 Z"></path>
  
  <rect x="16" y="33" width="13" height="2" fill="#0F0F0F"></rect>
  <rect x="16" y="38" width="13" height="2" fill="#0F0F0F"></rect>
  <rect x="16" y="43" width="13" height="2" fill="#0F0F0F"></rect>
  
  <path fill="#FFFFFF" d="M 32.5 50 L 32.5 28 L 35 28 L 35 24 L 39 24 L 39 28 L 43 28 L 43 24 L 47 24 L 47 28 L 51 28 L 51 50 Z"></path>
  
  <path fill="#0F0F0F" d="M 36 50 L 36 38 Q 36 35 41.75 35 Q 47.5 35 47.5 38 L 47.5 50 Z"></path>
  
  <rect x="32" y="10" width="1.5" height="18" fill="#FFFFFF"></rect>
  <path fill="#C81E1E" d="M 33.5 11 L 44 11 L 44 18 L 33.5 18 Z"></path>
</svg>